<?xml version="1.0" standalone="no"?>
<!DOCTYPE svg PUBLIC "-//W3C//DTD SVG 20010904//EN"
 "http://www.w3.org/TR/2001/REC-SVG-20010904/DTD/svg10.dtd">
<svg version="1.0" xmlns="http://www.w3.org/2000/svg"
 width="185.000000pt" height="40.000000pt" viewBox="0 0 185.000000 40.000000"
 preserveAspectRatio="xMidYMid meet">

<g transform="translate(0.000000,40.000000) scale(0.100000,-0.100000)"
fill="#FFFFFF" stroke="none">
<path d="M80 225 c0 -104 2 -125 15 -125 12 0 15 13 15 55 l0 55 38 0 c55 0
82 23 82 70 0 51 -26 70 -97 70 l-53 0 0 -125z m108 83 c30 -30 1 -68 -52 -68
-24 0 -26 4 -26 40 0 39 1 40 33 40 18 0 38 -5 45 -12z"/>
<path d="M730 311 l0 -39 -39 5 c-54 7 -81 -23 -81 -89 0 -69 21 -88 100 -85
l60 1 0 123 c0 116 -1 123 -20 123 -17 0 -20 -7 -20 -39z m-1 -95 c12 -26 12
-33 0 -55 -29 -52 -89 -32 -89 30 0 60 63 78 89 25z"/>
<path d="M820 335 c0 -8 9 -15 20 -15 11 0 20 7 20 15 0 8 -9 15 -20 15 -11 0
-20 -7 -20 -15z"/>
<path d="M1292 228 l3 -123 28 -3 c19 -2 27 1 27 12 0 9 -7 16 -15 16 -12 0
-15 19 -15 110 0 92 -2 110 -15 110 -13 0 -15 -18 -13 -122z"/>
<path d="M1510 238 c-24 -62 -45 -119 -48 -125 -2 -8 4 -13 16 -13 13 0 23 10
30 28 9 25 12 27 61 23 44 -2 54 -7 63 -27 6 -13 19 -24 29 -24 17 0 16 5 -8
68 -14 37 -35 93 -47 124 -31 86 -45 78 -96 -54z m83 -5 l17 -43 -41 0 c-29 0
-39 4 -35 13 2 6 10 29 17 50 14 42 19 40 42 -20z"/>
<path d="M1720 225 c0 -118 1 -125 20 -125 19 0 20 7 20 125 0 118 -1 125 -20
125 -19 0 -20 -7 -20 -125z"/>
<path d="M1035 281 c-3 -5 -21 -7 -40 -4 -23 4 -43 0 -59 -11 -22 -14 -25 -22
-24 -78 0 -35 5 -68 10 -75 5 -7 5 -14 -2 -18 -16 -10 -12 -40 8 -58 26 -23
94 -22 115 1 19 21 22 58 6 68 -6 4 -32 12 -57 18 -52 14 -73 40 -23 30 40 -8
86 34 77 71 -3 13 -2 27 4 30 13 8 13 35 1 35 -6 0 -12 -4 -16 -9z m-27 -60
c6 -40 -39 -56 -58 -20 -9 15 -8 24 1 35 18 22 53 13 57 -15z m16 -141 c15
-15 -5 -30 -39 -30 -36 0 -50 12 -41 35 4 11 14 13 38 9 18 -4 37 -10 42 -14z"/>
<path d="M280 190 c0 -73 3 -90 15 -90 12 0 15 13 15 58 0 61 14 86 53 93 10
2 18 9 18 14 0 15 -40 18 -57 5 -10 -9 -14 -9 -14 -1 0 6 -7 11 -15 11 -12 0
-15 -17 -15 -90z"/>
<path d="M433 256 c-60 -52 -22 -156 56 -156 82 1 119 86 65 149 -33 39 -80
42 -121 7z m95 -18 c16 -16 16 -80 0 -96 -19 -19 -66 -15 -78 7 -24 47 -4 101
38 101 16 0 33 -5 40 -12z"/>
<path d="M830 190 c0 -73 3 -90 15 -90 12 0 15 17 15 90 0 73 -3 90 -15 90
-12 0 -15 -17 -15 -90z"/>
<path d="M1114 266 c-15 -12 -16 -17 -7 -27 10 -10 15 -10 27 0 23 19 60 10
64 -16 3 -21 -1 -23 -40 -23 -24 0 -49 -5 -56 -12 -15 -15 -15 -61 0 -76 16
-16 70 -15 87 0 11 11 14 11 18 1 3 -7 11 -13 19 -13 24 0 19 121 -7 154 -23
30 -72 35 -105 12z m86 -99 c0 -20 -21 -37 -46 -37 -29 0 -39 16 -24 35 15 19
70 20 70 2z"/>
</g>
</svg>
